<svg xmlns="http://www.w3.org/2000/svg" viewBox="0 0 537 537"><defs><style>.cls-1{fill:#fffdf4;}.cls-2{fill:#e3dbd5;}.cls-3{fill:#d5cec8;}.cls-4{fill:#beb8b4;}.cls-5{fill:#40aaac;}.cls-6{fill:#338c8e;}.cls-7{fill:#8e3833;}.cls-8{fill:#d45852;}.cls-9{fill:#ec9c4f;}.cls-10{fill:#872d2b;}.cls-11{fill:#71221f;}.cls-12{fill:#5e1713;}.cls-13{fill:#520e09;}.cls-14{fill:none;}</style></defs><title>icon_comics</title><g id="Calque_2" data-name="Calque 2"><g id="object"><path class="cls-1" d="M242.09,167.32s22.62,9.46,26,16.82l1.66,219.45s-4.68-10.38-26-18.65l-118.8-55-1.65-217.58Z"/><path class="cls-1" d="M293.78,166.93s-24.63,11-25.71,17.21l1.66,219.65s3.48-8.84,25.7-19.25l117.93-58.49L411.7,108.47Z"/><path class="cls-2" d="M242.09,167.32s22.62,9.46,26,16.82l1.66,219.45s-4.68-10.38-26-18.65L121.59,333.35,120,115.76Z"/><path class="cls-2" d="M293.78,166.93s-24.63,11-25.71,17.21l1.66,219.65s3.48-8.84,25.7-19.25l121.34-55.12-1.64-217.59Z"/><path class="cls-3" d="M242.12,170.7s25.92,10.51,25.95,13.44l1.66,219.45s-5.25-6.45-26-15.27L118.23,336.76l-1.64-217.59Z"/><path class="cls-3" d="M293.81,170.31s-25.77,10.9-25.74,13.83l1.66,219.65s5.45-6.59,25.72-15.87l124.74-53.45-1.64-217.59Z"/><path class="cls-4" d="M242.14,174.09s25.9,7.12,25.93,10l1.66,219.45s-4.86-3.49-25.93-11.88L114.88,341.87l-1.65-217.6Z"/><path class="cls-4" d="M293.84,173.7s-25.8,7.51-25.77,10.44l1.66,219.65s5.33-3,25.75-12.48l128.14-51.79L422,121.94Z"/><path class="cls-5" d="M244,168.15c7.93,3.82,12,6,14.82,16.51,1.49.06,9.33,9.31,9.25-.52C268,171.66,244,168.15,244,168.15Z"/><polygon class="cls-6" points="228.75 382.79 229.17 436.89 245.93 431.17 259.85 448.53 259.47 399 228.75 382.79"/><path class="cls-7" d="M268.06,183.71c-23.57.17-28.5-7.56-28.5-7.56l.05,7.1s4.95,7.75,28.51,7.56,28.38-8,28.38-8l-.05-7.12S291.63,183.52,268.06,183.71Z"/><path class="cls-8" d="M268.12,190.7c-25,.19-28.51-7.76-28.51-7.76L241.35,413s5,13.05,28.55,12.87,28.34-13.3,28.34-13.3L296.5,182.51S293.11,190.5,268.12,190.7Z"/><path class="cls-9" d="M268.23,206.12c-25,.18-28.5-7.76-28.5-7.76l.23,30.08s3.51,7.93,28.51,7.75S296.85,228,296.85,228l-.22-30.06S293.22,205.93,268.23,206.12Z"/><path class="cls-9" d="M269.44,365.06c-25,.19-28.51-7.74-28.51-7.74l.07,11.05s3.55,7.94,28.53,7.75,28.36-8.18,28.36-8.18l-.07-11.05S294.43,364.88,269.44,365.06Z"/><path class="cls-9" d="M269.59,384.09c-25,.19-28.51-7.75-28.51-7.75l.08,11.05s3.52,7.94,28.51,7.76S298.05,387,298.05,387l-.08-11S294.57,383.9,269.59,384.09Z"/><path class="cls-10" d="M117.83,363.17,241.35,413l-1.74-230.09L116.08,133.09c-6.1-1.48-7.63,3.49-7.59,7.72l1.63,214.76C110.14,359.79,112.7,361.26,117.83,363.17Z"/><path class="cls-11" d="M421,360.88,298.24,412.6,296.5,182.51l122.76-51.72c6.07-1.58,7.69,3.37,7.71,7.61l1.64,214.74C428.63,357.38,426.09,358.89,421,360.88Z"/><path class="cls-11" d="M426.61,123.42l-3.51,7.33c2.95,1,3.85,4.5,3.87,7.65l1.6,210.4,0,4.34a7.09,7.09,0,0,1-.48,2.75h0l3.54-7.3h0a6.9,6.9,0,0,0,.52-2.78l-1.63-214.76C430.53,127.92,429.62,124.4,426.61,123.42Z"/><path class="cls-12" d="M423.1,130.75l3.51-7.33a7.18,7.18,0,0,0-4,0L296.45,175.2l.05,7.31,122.76-51.72a6.76,6.76,0,0,1,3.84,0Z"/><path class="cls-11" d="M108.62,125.83l3.63,7.28c-2.94,1-3.79,4.55-3.76,7.7l1.6,210.4,0,4.36a6.61,6.61,0,0,0,.52,2.73h0L107,351.06h0a6.68,6.68,0,0,1-.56-2.78l-1.62-214.75C104.78,130.39,105.64,126.86,108.62,125.83Z"/><path class="cls-12" d="M112.25,133.11l-3.63-7.28a7.23,7.23,0,0,1,4,0l127,49.83.05,7.32L116.1,133.09a6.81,6.81,0,0,0-3.85,0Z"/><polygon class="cls-13" points="312.19 192.39 312.66 253.98 415.89 212.26 415.41 150.69 312.19 192.39"/><polygon class="cls-13" points="312.71 259.99 312.78 270.33 416.01 228.6 415.93 218.3 312.71 259.99"/><rect class="cls-14" width="537" height="537"/></g></g></svg>