<svg xmlns="http://www.w3.org/2000/svg" viewBox="0 0 537 537"><defs><style>.cls-1{fill:#f7f7f7;}.cls-2{fill:#161216;opacity:0.06;}.cls-3{fill:none;}</style></defs><title>icon_musique</title><g id="Calque_2" data-name="Calque 2"><g id="object"><path class="cls-1" d="M378.58,96.36a4.4,4.4,0,0,0-3.86-.69s-181.31,52.53-185.56,53.7a7.38,7.38,0,0,0-2.1.68,4.32,4.32,0,0,0-2,3.66l-.64,195.5a4,4,0,0,1-4.53,3.93,68.18,68.18,0,0,0-33.17,4.66c-28.4,11.38-44.38,38.26-35.63,59.93C115.4,428.45,125,436.24,138,439.67a58,58,0,0,0,14.45,1.84,69.63,69.63,0,0,0,26-5.13c22.21-8.9,37.44-27.46,38-46.26a3,3,0,0,0,0-.42L217,235.19a4,4,0,0,1,2.88-3.82l122.83-35.59a4,4,0,0,1,5.13,3.84l-.36,111.43a4,4,0,0,1-4.54,3.94,68.06,68.06,0,0,0-33.17,4.66c-13.54,5.42-24.72,14.49-31.48,25.54-7,11.45-8.48,23.66-4.15,34.38S288,398.09,301,401.51c12.55,3.31,26.92,2.14,40.45-3.29,22.5-9,37.76-27.81,38-46.81a1.7,1.7,0,0,0,0-.22l.82-251.33A4.4,4.4,0,0,0,378.58,96.36ZM348,150.28l0,8a4,4,0,0,1-2.87,3.82L222.23,198.07a4,4,0,0,1-5.13-3.85l0-8.38A4,4,0,0,1,220,182l122.83-35.59A4,4,0,0,1,348,150.28Z"/><path class="cls-2" d="M121.75,431.81A44.09,44.09,0,0,0,138,439.67a58,58,0,0,0,14.45,1.84,69.63,69.63,0,0,0,26-5.13c22.21-8.9,37.44-27.46,38-46.26a3,3,0,0,0,0-.42l.14-43.12C188.25,404.85,147.62,424.93,121.75,431.81Z"/><path class="cls-2" d="M341.46,398.22c22.5-9,37.76-27.81,38-46.81a1.7,1.7,0,0,0,0-.22l.11-34.29c-30.38,54.69-71.78,71.25-95.49,76.23A43.69,43.69,0,0,0,301,401.51C313.56,404.82,327.93,403.65,341.46,398.22Z"/><rect class="cls-3" width="537" height="537"/></g></g></svg>