<svg xmlns="http://www.w3.org/2000/svg" viewBox="0 0 537 537"><defs><style>.cls-1{fill:#3b455a;}.cls-2{fill:#e6e6e6;}.cls-3{fill:#7fc5a3;}.cls-4{fill:#ebb044;}.cls-5{fill:#474ebb;}.cls-6{fill:none;}</style></defs><title>icon_tv</title><g id="Calque_2" data-name="Calque 2"><g id="object"><path class="cls-1" d="M300.94,433.26l-61.45.58c-17.11.16-31.36-15.83-32.12-36.16L197.16,122.13c-.36-9.72,5.81-17.82,13.65-17.89L326,103.16c7.85-.07,14.1,7.91,13.84,17.64l-7.18,275.72C332.13,416.85,318.05,433.1,300.94,433.26Z"/><polygon class="cls-2" points="243.84 177.57 219.39 177.72 219.37 167.53 243.82 167.38 243.84 177.57"/><polygon class="cls-2" points="280.49 177.36 256.04 177.5 256.02 167.31 280.46 167.16 280.49 177.36"/><polygon class="cls-2" points="317.13 177.14 292.69 177.28 292.67 167.09 317.11 166.95 317.13 177.14"/><polygon class="cls-2" points="243.9 206.41 219.45 206.56 219.43 196.36 243.88 196.22 243.9 206.41"/><polygon class="cls-2" points="280.55 206.2 256.1 206.34 256.08 196.15 280.52 196 280.55 206.2"/><polygon class="cls-2" points="317.2 205.98 292.75 206.12 292.73 195.93 317.17 195.79 317.2 205.98"/><polygon class="cls-2" points="243.96 235.25 219.51 235.39 219.49 225.2 243.94 225.06 243.96 235.25"/><polygon class="cls-2" points="280.61 235.03 256.16 235.18 256.14 224.99 280.59 224.84 280.61 235.03"/><polygon class="cls-2" points="317.26 234.82 292.81 234.96 292.79 224.77 317.24 224.63 317.26 234.82"/><path class="cls-2" d="M291.69,326.43l9.25,6.26a39.43,39.43,0,0,0-.91-45.38l-8.14,6.06A28.42,28.42,0,0,1,291.69,326.43Z"/><path class="cls-2" d="M253.48,333.6l-6.58,10a39,39,0,0,0,45.19-1.53l-6.91-9.18A28.12,28.12,0,0,1,253.48,333.6Z"/><path class="cls-2" d="M244.33,296l-9.16-5.6a39.41,39.41,0,0,0,3,45.28l9.15-7.49A28.39,28.39,0,0,1,244.33,296Z"/><path class="cls-2" d="M283.81,285.77l5.23-8.55a39,39,0,0,0-45.12,3.1l6.56,8.12A28.13,28.13,0,0,1,283.81,285.77Z"/><path class="cls-2" d="M280.44,298.73a16.93,16.93,0,1,1-23.85.14A17,17,0,0,1,280.44,298.73Z"/><polygon class="cls-3" points="243 378.02 222.39 378.14 222.38 373.34 242.99 373.22 243 378.02"/><polygon class="cls-4" points="280.2 376.97 259.59 377.09 259.58 372.29 280.19 372.17 280.2 376.97"/><polygon class="cls-5" points="317.4 375.92 296.79 376.04 296.78 371.24 317.39 371.12 317.4 375.92"/><path class="cls-3" d="M320.09,134.21a9.64,9.64,0,1,1-9.65-9.62A9.7,9.7,0,0,1,320.09,134.21Z"/><rect class="cls-6" width="537" height="537"/></g></g></svg>