<svg xmlns="http://www.w3.org/2000/svg" viewBox="0 0 537 537"><defs><style>.cls-1{isolation:isolate;}.cls-2{fill:#3b455a;}.cls-3{fill:#59595b;}.cls-4{fill:#f7f7f7;}.cls-5{fill:#e6e6e7;}.cls-6{fill:#272525;opacity:0.42;mix-blend-mode:multiply;}.cls-7{fill:none;}</style></defs><title>icon_movies</title><g class="cls-1"><g id="Calque_2" data-name="Calque 2"><g id="object"><rect class="cls-2" x="128.11" y="235.73" width="302.85" height="201.56" transform="translate(-61.71 62.78) rotate(-11.55)"/><rect class="cls-3" x="104.37" y="202.59" width="303.78" height="35.44" transform="translate(-38.92 55.77) rotate(-11.55)"/><polygon class="cls-4" points="373.34 214.47 408.62 207.26 401.53 172.54 400.97 172.66 373.34 214.47"/><polygon class="cls-5" points="103.9 233.36 109.9 262.75 133.28 227.36 103.9 233.36"/><polygon class="cls-4" points="186.04 216.58 158.41 258.39 213.12 247.21 240.75 205.4 186.04 216.58"/><polygon class="cls-4" points="293.5 194.62 265.88 236.43 320.59 225.25 348.21 183.44 293.5 194.62"/><polygon class="cls-2" points="133.28 227.36 109.9 262.75 110.99 268.08 158.41 258.39 186.04 216.58 133.28 227.36"/><polygon class="cls-2" points="240.75 205.4 213.12 247.21 265.88 236.43 293.5 194.62 240.75 205.4"/><polygon class="cls-2" points="348.21 183.44 320.59 225.25 373.34 214.47 400.97 172.66 348.21 183.44"/><polygon class="cls-5" points="136.64 217.89 104.08 233.28 88.94 201.24 89.45 200.99 136.64 217.89"/><polygon class="cls-4" points="363.59 71.43 376.4 98.55 336.47 84.25 363.59 71.43"/><polygon class="cls-4" points="287.79 107.25 334.97 124.15 284.49 148.01 237.3 131.12 287.79 107.25"/><polygon class="cls-4" points="188.62 154.12 235.8 171.02 185.32 194.88 138.13 177.98 188.62 154.12"/><polygon class="cls-2" points="336.47 84.25 376.4 98.55 378.73 103.47 334.97 124.15 287.79 107.25 336.47 84.25"/><polygon class="cls-2" points="237.3 131.12 284.49 148.01 235.8 171.02 188.62 154.12 237.3 131.12"/><polygon class="cls-2" points="138.13 177.98 185.32 194.88 136.64 217.89 89.45 200.99 138.13 177.98"/><polygon class="cls-2" points="110.99 268.08 88.95 201.28 121.5 185.89 182.72 253.43 110.99 268.08"/><polygon class="cls-6" points="121.5 185.89 157 208.26 146.07 212.99 121.5 185.89"/><polygon class="cls-6" points="155.06 222.91 193.13 251.3 182.72 253.43 155.06 222.91"/><path class="cls-4" d="M118.71,206.42a4.8,4.8,0,1,1-5.76-3.59A4.8,4.8,0,0,1,118.71,206.42Z"/><path class="cls-4" d="M123.7,249a4.8,4.8,0,1,1-5.76-3.58A4.79,4.79,0,0,1,123.7,249Z"/><path class="cls-4" d="M158.16,240.94a4.8,4.8,0,1,1-5.76-3.58A4.79,4.79,0,0,1,158.16,240.94Z"/><rect class="cls-5" x="153.49" y="392.46" width="275.36" height="2.05" transform="translate(-72.89 66.26) rotate(-11.55)"/><rect class="cls-5" x="244.97" y="405.49" width="2.26" height="33.45" transform="translate(-79.55 57.82) rotate(-11.55)"/><rect class="cls-5" x="342.77" y="385.5" width="2.26" height="33.45" transform="translate(-73.57 77) rotate(-11.55)"/><rect class="cls-5" x="127.75" y="266.39" width="275.36" height="2.26" transform="translate(-48.19 58.56) rotate(-11.55)"/><rect class="cls-7" width="537" height="537"/></g></g></g></svg>