<svg xmlns="http://www.w3.org/2000/svg" viewBox="0 0 100 87"><defs><style>.cls-1{fill:#5d5ed4;}.cls-2{fill:#7475d4;}.cls-3{fill:#bbe6f9;}.cls-4{fill:#77c3f5;}.cls-5{fill:#4cabeb;}.cls-6{fill:#fff;}</style></defs><title>Fichier 4</title><g id="Calque_2" data-name="Calque 2"><g id="Icons"><path class="cls-1" d="M94,6H6c-3.31,0-6,4.69-6,8V78a6,6,0,0,0,6,6H94a6,6,0,0,0,6-6V14C100,10.69,97.31,6,94,6Z"/><circle class="cls-2" cx="50" cy="81" r="6"/><rect class="cls-2" y="4" width="100" height="78" rx="6"/><path class="cls-1" d="M44,3H8A3,3,0,0,0,5,6V77a3,3,0,0,0,3,3H44a6,6,0,0,1,6,6V9A6,6,0,0,0,44,3Z"/><path class="cls-1" d="M92,3H56a6,6,0,0,0-6,6V86a6,6,0,0,1,6-6H92a3,3,0,0,0,3-3V6A3,3,0,0,0,92,3Z"/><path class="cls-3" d="M44,0H8A3,3,0,0,0,5,3V74a3,3,0,0,0,3,3H44a6,6,0,0,1,6,6V6A6,6,0,0,0,44,0Z"/><path class="cls-4" d="M92,0H56a6,6,0,0,0-6,6V83a6,6,0,0,1,6-6H92a3,3,0,0,0,3-3V3A3,3,0,0,0,92,0Z"/><path class="cls-4" d="M92,0H56a6,6,0,0,0-6,6V83a6,6,0,0,1,6-6H92a3,3,0,0,0,3-3V3A3,3,0,0,0,92,0Z"/><path class="cls-5" d="M50,6V83a6,6,0,0,1,4-5.65V6a6,6,0,0,1,6-6H56A6,6,0,0,0,50,6Z"/><rect class="cls-4" x="11" y="17" width="32.93" height="12"/><rect class="cls-6" x="11" y="33" width="32.93" height="4"/><rect class="cls-6" x="11" y="41" width="33" height="4"/><rect class="cls-6" x="11" y="49" width="33" height="4"/><rect class="cls-6" x="11" y="57" width="21.11" height="4"/><rect class="cls-3" x="58" y="32" width="32.93" height="4"/><rect class="cls-3" x="58" y="24" width="32.93" height="4"/><rect class="cls-3" x="58" y="16" width="32.93" height="4"/><rect class="cls-3" x="58" y="40" width="33" height="4"/><rect class="cls-3" x="58" y="48" width="33" height="4"/><rect class="cls-3" x="58" y="56" width="16.1" height="4"/></g></g></svg>