<svg xmlns="http://www.w3.org/2000/svg" viewBox="0 0 96 100"><defs><style>.cls-1{fill:#7475d4;}.cls-2{fill:#9494d4;}</style></defs><title>Fichier 1</title><g id="Calque_2" data-name="Calque 2"><g id="Icons"><path class="cls-1" d="M90,0,32,9a6,6,0,0,0-6,6V32a6,6,0,0,0,6,6l58-9a6,6,0,0,0,6-6V6A6,6,0,0,0,90,0Z"/><circle class="cls-1" cx="17" cy="83" r="17"/><rect class="cls-2" x="26" y="32" width="8" height="50"/><circle class="cls-1" cx="79" cy="72" r="17"/><rect class="cls-2" x="88" y="23" width="8" height="48"/><path class="cls-2" d="M90,14,32,23a6,6,0,0,0-6,6v3a6,6,0,0,0,6,6l58-9a6,6,0,0,0,6-6V20A6,6,0,0,0,90,14Z"/><path class="cls-2" d="M79,55V89a17,17,0,0,0,0-34Z"/><path class="cls-2" d="M17,66v34a17,17,0,0,0,0-34Z"/></g></g></svg>