<svg xmlns="http://www.w3.org/2000/svg" viewBox="0 0 100 94"><defs><style>.cls-1{fill:#77c3f5;}.cls-2{fill:#9cdcff;}.cls-3{fill:#4cabeb;}.cls-4{fill:#7475d4;}.cls-5{fill:#9494d4;}</style></defs><title>Fichier 3</title><g id="Calque_2" data-name="Calque 2"><g id="Icons"><path class="cls-1" d="M70,84H31a6,6,0,0,0-6,6v4H76V90A6,6,0,0,0,70,84Z"/><path class="cls-2" d="M70,84H31a6,6,0,0,0-6,6v3a6,6,0,0,1,6-6H70a6,6,0,0,1,6,6V90A6,6,0,0,0,70,84Z"/><rect class="cls-1" x="33" y="70" width="35" height="14"/><rect class="cls-3" x="33" y="70" width="35" height="9"/><rect class="cls-1" width="100" height="76" rx="12"/><rect class="cls-4" x="9" y="9" width="82" height="55" rx="2"/><path class="cls-3" d="M89,67H80a2,2,0,0,0,0,4h9a2,2,0,0,0,0-4Z"/><path class="cls-5" d="M89,9H11a2,2,0,0,0-2,2v5a2,2,0,0,1,2-2H89a2,2,0,0,1,2,2V11A2,2,0,0,0,89,9Z"/></g></g></svg>