<svg xmlns="http://www.w3.org/2000/svg" viewBox="0 0 100.03 100"><defs><style>.cls-1{fill:#77c3f5;}.cls-2{fill:#369ed8;}.cls-3{fill:#4cabeb;}.cls-4{fill:#7475d4;}.cls-5{fill:#5d5ed4;}.cls-6{fill:#85baa0;}.cls-7{fill:#bbe6f9;}</style></defs><title>Fichier 2</title><g id="Calque_2" data-name="Calque 2"><g id="Icons"><path class="cls-1" d="M96.8,4.45A6,6,0,0,0,89.45.21L4.45,23A6,6,0,0,0,.21,30.33L2,37.09a6,6,0,0,0,7.35,4.24l85-22.77a6,6,0,0,0,4.24-7.35Z"/><path class="cls-1" d="M96.8,4.45A6,6,0,0,0,89.45.21L4.45,23A6,6,0,0,0,.21,30.33L2,37.09a6,6,0,0,0,7.35,4.24l85-22.77a6,6,0,0,0,4.24-7.35Z"/><path class="cls-2" d="M.21,30.33,2,37.09a6,6,0,0,0,7.35,4.24l2.89-.77L0,28.32A6,6,0,0,0,.21,30.33Z"/><polygon class="cls-3" points="20.25 18.75 35.76 34.26 44.45 31.93 28.94 16.42 20.25 18.75"/><polygon class="cls-3" points="36.34 14.44 51.85 29.95 60.55 27.62 45.03 12.11 36.34 14.44"/><polygon class="cls-3" points="52.43 10.13 67.95 25.64 76.64 23.31 61.13 7.79 52.43 10.13"/><polygon class="cls-3" points="68.53 5.81 84.04 21.32 92.73 19 77.22 3.48 68.53 5.81"/><path class="cls-3" d="M96.8,4.45A6,6,0,0,0,89.45.21L84.62,1.5,98.3,15.18a6,6,0,0,0,.31-4Z"/><path class="cls-3" d="M4.45,23C1.63,23.74,0,26,0,29.2V48H9V41l.34.35,19-5.08L12.84,20.73Z"/><rect class="cls-4" x="0.03" y="44" width="100" height="56" rx="6"/><rect class="cls-5" x="26.03" y="69" width="48.94" height="4"/><rect class="cls-5" x="26.03" y="77" width="48.94" height="4"/><polygon class="cls-5" points="30.53 85 26.03 85 26.03 89 30.53 89 43.53 89 48.03 89 48.03 85 43.53 85 30.53 85"/><rect class="cls-4" x="0.03" y="51" width="100" height="7"/><rect class="cls-6" x="0.03" y="39" width="100" height="19" rx="6"/><rect class="cls-7" x="0.03" y="39" width="100" height="19" rx="6"/><path class="cls-3" d="M1.69,35.86,2,37.09a6,6,0,0,0,7.35,4.24L36.74,34H6A6,6,0,0,0,1.69,35.86Z"/><path class="cls-2" d="M6,34a6,6,0,0,0-6,6v7a5.55,5.55,0,0,0,.09,1H9V41l.34.35,19-5.08L26.11,34Z"/><path class="cls-3" d="M0,45v7a6,6,0,0,0,.35,2L9,39H6A6,6,0,0,0,0,45Z"/><path class="cls-3" d="M0,50c.1,0-.1,8,0,8H14.72l11-19H6Z"/><polygon class="cls-3" points="22.38 58 31.38 58 42.35 39 33.35 39 22.38 58"/><polygon class="cls-3" points="39.05 58 48.05 58 59.01 39 50.01 39 39.05 58"/><polygon class="cls-3" points="55.71 58 64.71 58 75.68 39 66.68 39 55.71 58"/><polygon class="cls-3" points="72.37 58 81.37 58 92.34 39 83.34 39 72.37 58"/><path class="cls-3" d="M89,58h5a6,6,0,0,0,6-6V45a6,6,0,0,0-1.33-3.76Z"/><circle class="cls-2" cx="10.03" cy="38" r="6"/><circle class="cls-1" cx="10.03" cy="38" r="3"/><rect class="cls-3" x="95.03" y="52" width="5" height="6"/><rect class="cls-5" x="0.03" y="58" width="100" height="5"/></g></g></svg>